<svg height="512" width="512" xmlns="http://www.w3.org/2000/svg"><path fill="#0d597f" d="m384.0214844 34.2768898h-256.0429764l-127.978508 221.7230186 127.978508 221.7232056h256.0429688l127.9785232-221.7232056zm-236.8594208 261.1252098 38.8415833-38.8828735v53.9402161c-13.6286469-.2927857-26.6828461-6.542511-38.8415833-15.0573426zm152.6052704 10.5734863c-23.7467957-24.4812622-54.3271942-55.1417084-87.5346832-88.1777344l-88.9374542 87.9747314c-14.0190278 9.871277-37.4201966 2.9774171-55.8209916-10.4084166l145.119606-143.4794159c45.9142151 48.2947998 93.569458 96.1930847 143.0358276 143.6788788-23.8571471 17.1013488-45.3796386 18.3113708-55.8623046 10.4119567zm84.8146057 0-71.3183899-71.0779419-7.1147766 7.1147919-33.2984924-32.9348145 40.4304199-40.4402924c43.1062317 43.4316711 85.4614258 86.1768494 127.1635132 126.9263-20.5692139 14.748871-43.3817139 19.811371-55.8622742 10.4119569z"/></svg>
